<?xml version="1.0" encoding="UTF-8" standalone="no"?>
<!DOCTYPE svg PUBLIC "-//W3C//DTD SVG 1.1//EN" "http://www.w3.org/Graphics/SVG/1.1/DTD/svg11.dtd">
<svg width="100%" height="100%" viewBox="0 0 830 117" version="1.1" xmlns="http://www.w3.org/2000/svg" xmlns:xlink="http://www.w3.org/1999/xlink" xml:space="preserve" xmlns:serif="http://www.serif.com/" style="fill-rule:evenodd;clip-rule:evenodd;stroke-linejoin:round;stroke-miterlimit:2;">
    <g transform="matrix(1.20987,0,0,1.20987,-307.816,-404.882)">
        <g transform="matrix(150,0,0,150,249.172,430.8)">
            <path d="M0.52,-0.398C0.52,-0.365 0.514,-0.333 0.501,-0.304C0.488,-0.274 0.471,-0.248 0.449,-0.226C0.427,-0.204 0.401,-0.187 0.372,-0.174C0.342,-0.161 0.31,-0.155 0.277,-0.155L0.169,-0.155L0.169,-0.067C0.169,-0.048 0.163,-0.033 0.15,-0.02C0.136,-0.007 0.121,-0 0.102,-0C0.083,-0 0.067,-0.007 0.055,-0.02C0.042,-0.033 0.035,-0.048 0.035,-0.067L0.035,-0.574C0.035,-0.593 0.042,-0.608 0.055,-0.622C0.067,-0.635 0.083,-0.641 0.102,-0.641L0.277,-0.641C0.31,-0.641 0.342,-0.635 0.372,-0.622C0.401,-0.609 0.427,-0.592 0.449,-0.57C0.471,-0.548 0.488,-0.522 0.501,-0.493C0.514,-0.463 0.52,-0.431 0.52,-0.398ZM0.386,-0.398C0.386,-0.413 0.383,-0.427 0.378,-0.44C0.372,-0.453 0.364,-0.465 0.354,-0.475C0.344,-0.485 0.332,-0.493 0.319,-0.499C0.306,-0.504 0.292,-0.507 0.277,-0.507L0.169,-0.507L0.169,-0.289L0.277,-0.289C0.292,-0.289 0.306,-0.292 0.319,-0.298C0.332,-0.303 0.344,-0.311 0.354,-0.321C0.364,-0.331 0.372,-0.343 0.378,-0.356C0.383,-0.369 0.386,-0.383 0.386,-0.398Z" style="fill:rgb(29,119,245);fill-rule:nonzero;"/>
        </g>
        <g transform="matrix(150,0,0,150,330.472,430.8)">
            <path d="M0.388,-0.135C0.407,-0.135 0.423,-0.128 0.436,-0.115C0.448,-0.102 0.455,-0.086 0.455,-0.068C0.455,-0.049 0.448,-0.033 0.436,-0.02C0.423,-0.007 0.407,-0 0.388,-0L0.102,-0C0.085,-0 0.069,-0.007 0.056,-0.02C0.042,-0.033 0.035,-0.049 0.035,-0.068L0.035,-0.571C0.035,-0.588 0.041,-0.604 0.054,-0.618C0.067,-0.632 0.083,-0.639 0.102,-0.639L0.388,-0.639C0.407,-0.639 0.423,-0.632 0.436,-0.619C0.448,-0.606 0.455,-0.59 0.455,-0.571C0.455,-0.552 0.448,-0.536 0.436,-0.523C0.423,-0.51 0.407,-0.504 0.388,-0.504L0.168,-0.504L0.168,-0.39L0.321,-0.39C0.339,-0.39 0.355,-0.383 0.368,-0.37C0.381,-0.357 0.388,-0.341 0.388,-0.322C0.388,-0.303 0.381,-0.288 0.368,-0.275C0.355,-0.262 0.339,-0.255 0.321,-0.255L0.168,-0.255L0.168,-0.135L0.388,-0.135Z" style="fill:rgb(29,119,245);fill-rule:nonzero;"/>
        </g>
        <g transform="matrix(150,0,0,150,403.672,430.8)">
            <path d="M0.22,-0.504C0.204,-0.504 0.191,-0.498 0.18,-0.487C0.169,-0.475 0.163,-0.46 0.162,-0.443C0.163,-0.428 0.169,-0.415 0.18,-0.404C0.191,-0.393 0.204,-0.387 0.22,-0.387L0.288,-0.387C0.313,-0.387 0.337,-0.382 0.36,-0.372C0.383,-0.362 0.403,-0.348 0.421,-0.331C0.439,-0.313 0.453,-0.292 0.464,-0.269C0.475,-0.245 0.48,-0.22 0.48,-0.193C0.48,-0.167 0.475,-0.142 0.465,-0.119C0.455,-0.096 0.441,-0.075 0.424,-0.058C0.407,-0.041 0.386,-0.027 0.363,-0.017C0.34,-0.006 0.315,-0.001 0.288,-0L0.11,-0C0.09,-0 0.074,-0.007 0.061,-0.02C0.048,-0.033 0.042,-0.049 0.042,-0.068C0.042,-0.086 0.049,-0.102 0.062,-0.115C0.075,-0.128 0.091,-0.135 0.11,-0.135L0.288,-0.135C0.303,-0.135 0.317,-0.141 0.329,-0.152C0.341,-0.163 0.347,-0.177 0.347,-0.193C0.347,-0.21 0.341,-0.224 0.33,-0.235C0.318,-0.246 0.304,-0.251 0.289,-0.252L0.22,-0.252C0.195,-0.253 0.17,-0.258 0.147,-0.268C0.124,-0.278 0.103,-0.292 0.086,-0.309C0.068,-0.326 0.054,-0.346 0.043,-0.369C0.032,-0.392 0.027,-0.418 0.027,-0.445C0.027,-0.47 0.032,-0.494 0.042,-0.517C0.052,-0.54 0.066,-0.561 0.084,-0.579C0.101,-0.597 0.122,-0.612 0.145,-0.623C0.168,-0.634 0.193,-0.639 0.22,-0.639L0.398,-0.639C0.416,-0.639 0.431,-0.632 0.444,-0.62C0.457,-0.607 0.464,-0.59 0.465,-0.571C0.465,-0.552 0.459,-0.536 0.446,-0.523C0.433,-0.51 0.417,-0.504 0.398,-0.504L0.22,-0.504Z" style="fill:rgb(29,119,245);fill-rule:nonzero;"/>
        </g>
        <g transform="matrix(150,0,0,150,479.722,430.8)">
            <path d="M0.274,-0.639C0.306,-0.639 0.337,-0.633 0.366,-0.622C0.395,-0.61 0.421,-0.594 0.443,-0.573C0.465,-0.552 0.483,-0.527 0.496,-0.498C0.509,-0.469 0.516,-0.438 0.516,-0.405L0.516,-0.068C0.516,-0.051 0.51,-0.036 0.498,-0.023C0.485,-0.01 0.47,-0.004 0.452,-0.003C0.434,-0.003 0.419,-0.009 0.406,-0.021C0.393,-0.032 0.386,-0.047 0.386,-0.065L0.386,-0.182L0.163,-0.182L0.163,-0.068C0.163,-0.051 0.156,-0.036 0.143,-0.023C0.13,-0.01 0.114,-0.003 0.097,-0.003C0.08,-0.003 0.064,-0.009 0.051,-0.021C0.038,-0.033 0.031,-0.048 0.031,-0.065L0.031,-0.397C0.032,-0.43 0.038,-0.462 0.051,-0.491C0.063,-0.52 0.08,-0.546 0.102,-0.568C0.123,-0.59 0.149,-0.607 0.178,-0.62C0.207,-0.633 0.239,-0.639 0.274,-0.639ZM0.386,-0.397C0.386,-0.412 0.383,-0.427 0.378,-0.441C0.372,-0.454 0.364,-0.466 0.354,-0.476C0.343,-0.486 0.331,-0.494 0.318,-0.5C0.304,-0.506 0.289,-0.509 0.273,-0.509C0.258,-0.509 0.244,-0.506 0.231,-0.501C0.218,-0.495 0.206,-0.487 0.196,-0.478C0.186,-0.469 0.178,-0.457 0.172,-0.444C0.166,-0.431 0.163,-0.417 0.163,-0.402L0.163,-0.312L0.386,-0.312L0.386,-0.397Z" style="fill:rgb(29,119,245);fill-rule:nonzero;"/>
        </g>
        <g transform="matrix(150,0,0,150,561.772,430.8)">
            <path d="M0.52,-0.398C0.52,-0.365 0.514,-0.333 0.501,-0.304C0.488,-0.274 0.471,-0.248 0.449,-0.226C0.427,-0.204 0.401,-0.187 0.372,-0.174C0.342,-0.161 0.31,-0.155 0.277,-0.155L0.169,-0.155L0.169,-0.067C0.169,-0.048 0.163,-0.033 0.15,-0.02C0.136,-0.007 0.121,-0 0.102,-0C0.083,-0 0.067,-0.007 0.055,-0.02C0.042,-0.033 0.035,-0.048 0.035,-0.067L0.035,-0.574C0.035,-0.593 0.042,-0.608 0.055,-0.622C0.067,-0.635 0.083,-0.641 0.102,-0.641L0.277,-0.641C0.31,-0.641 0.342,-0.635 0.372,-0.622C0.401,-0.609 0.427,-0.592 0.449,-0.57C0.471,-0.548 0.488,-0.522 0.501,-0.493C0.514,-0.463 0.52,-0.431 0.52,-0.398ZM0.386,-0.398C0.386,-0.413 0.383,-0.427 0.378,-0.44C0.372,-0.453 0.364,-0.465 0.354,-0.475C0.344,-0.485 0.332,-0.493 0.319,-0.499C0.306,-0.504 0.292,-0.507 0.277,-0.507L0.169,-0.507L0.169,-0.289L0.277,-0.289C0.292,-0.289 0.306,-0.292 0.319,-0.298C0.332,-0.303 0.344,-0.311 0.354,-0.321C0.364,-0.331 0.372,-0.343 0.378,-0.356C0.383,-0.369 0.386,-0.383 0.386,-0.398Z" style="fill:rgb(64,154,255);fill-rule:nonzero;"/>
        </g>
        <g transform="matrix(150,0,0,150,641.422,430.8)">
            <path d="M0.274,-0.003C0.239,-0.003 0.207,-0.009 0.178,-0.022C0.149,-0.035 0.123,-0.052 0.102,-0.074C0.08,-0.096 0.063,-0.122 0.051,-0.151C0.038,-0.18 0.032,-0.212 0.031,-0.245L0.031,-0.577C0.031,-0.594 0.038,-0.609 0.051,-0.621C0.064,-0.633 0.08,-0.639 0.097,-0.639C0.114,-0.639 0.13,-0.632 0.143,-0.62C0.156,-0.607 0.163,-0.591 0.163,-0.574L0.163,-0.24C0.163,-0.225 0.166,-0.211 0.172,-0.198C0.178,-0.185 0.186,-0.173 0.196,-0.164C0.206,-0.155 0.218,-0.147 0.231,-0.142C0.244,-0.136 0.258,-0.133 0.273,-0.133C0.289,-0.133 0.304,-0.136 0.318,-0.142C0.331,-0.148 0.343,-0.156 0.354,-0.166C0.364,-0.176 0.372,-0.188 0.378,-0.202C0.383,-0.215 0.386,-0.23 0.386,-0.245L0.386,-0.577C0.386,-0.595 0.393,-0.61 0.406,-0.622C0.419,-0.633 0.434,-0.639 0.452,-0.639C0.47,-0.638 0.485,-0.632 0.498,-0.619C0.51,-0.606 0.516,-0.591 0.516,-0.574L0.516,-0.237C0.516,-0.204 0.509,-0.173 0.496,-0.144C0.483,-0.115 0.465,-0.091 0.443,-0.07C0.421,-0.049 0.395,-0.032 0.366,-0.021C0.337,-0.009 0.306,-0.003 0.274,-0.003Z" style="fill:rgb(64,154,255);fill-rule:nonzero;"/>
        </g>
        <g transform="matrix(150,0,0,150,723.472,430.8)">
            <path d="M0.412,-0.136C0.43,-0.136 0.446,-0.13 0.459,-0.117C0.472,-0.103 0.478,-0.088 0.478,-0.069C0.478,-0.05 0.472,-0.034 0.459,-0.021C0.446,-0.008 0.43,-0.001 0.412,-0.001L0.104,-0.001C0.085,-0.001 0.069,-0.008 0.056,-0.021C0.043,-0.034 0.036,-0.05 0.035,-0.069L0.035,-0.572C0.035,-0.591 0.042,-0.607 0.055,-0.62C0.068,-0.632 0.085,-0.639 0.104,-0.639C0.121,-0.639 0.137,-0.632 0.151,-0.62C0.164,-0.607 0.171,-0.591 0.171,-0.572L0.171,-0.136L0.412,-0.136Z" style="fill:rgb(64,154,255);fill-rule:nonzero;"/>
        </g>
        <g transform="matrix(150,0,0,150,795.922,430.8)">
            <path d="M0.22,-0.504C0.204,-0.504 0.191,-0.498 0.18,-0.487C0.169,-0.475 0.163,-0.46 0.162,-0.443C0.163,-0.428 0.169,-0.415 0.18,-0.404C0.191,-0.393 0.204,-0.387 0.22,-0.387L0.288,-0.387C0.313,-0.387 0.337,-0.382 0.36,-0.372C0.383,-0.362 0.403,-0.348 0.421,-0.331C0.439,-0.313 0.453,-0.292 0.464,-0.269C0.475,-0.245 0.48,-0.22 0.48,-0.193C0.48,-0.167 0.475,-0.142 0.465,-0.119C0.455,-0.096 0.441,-0.075 0.424,-0.058C0.407,-0.041 0.386,-0.027 0.363,-0.017C0.34,-0.006 0.315,-0.001 0.288,-0L0.11,-0C0.09,-0 0.074,-0.007 0.061,-0.02C0.048,-0.033 0.042,-0.049 0.042,-0.068C0.042,-0.086 0.049,-0.102 0.062,-0.115C0.075,-0.128 0.091,-0.135 0.11,-0.135L0.288,-0.135C0.303,-0.135 0.317,-0.141 0.329,-0.152C0.341,-0.163 0.347,-0.177 0.347,-0.193C0.347,-0.21 0.341,-0.224 0.33,-0.235C0.318,-0.246 0.304,-0.251 0.289,-0.252L0.22,-0.252C0.195,-0.253 0.17,-0.258 0.147,-0.268C0.124,-0.278 0.103,-0.292 0.086,-0.309C0.068,-0.326 0.054,-0.346 0.043,-0.369C0.032,-0.392 0.027,-0.418 0.027,-0.445C0.027,-0.47 0.032,-0.494 0.042,-0.517C0.052,-0.54 0.066,-0.561 0.084,-0.579C0.101,-0.597 0.122,-0.612 0.145,-0.623C0.168,-0.634 0.193,-0.639 0.22,-0.639L0.398,-0.639C0.416,-0.639 0.431,-0.632 0.444,-0.62C0.457,-0.607 0.464,-0.59 0.465,-0.571C0.465,-0.552 0.459,-0.536 0.446,-0.523C0.433,-0.51 0.417,-0.504 0.398,-0.504L0.22,-0.504Z" style="fill:rgb(64,154,255);fill-rule:nonzero;"/>
        </g>
        <g transform="matrix(150,0,0,150,871.972,430.8)">
            <path d="M0.388,-0.135C0.407,-0.135 0.423,-0.128 0.436,-0.115C0.448,-0.102 0.455,-0.086 0.455,-0.068C0.455,-0.049 0.448,-0.033 0.436,-0.02C0.423,-0.007 0.407,-0 0.388,-0L0.102,-0C0.085,-0 0.069,-0.007 0.056,-0.02C0.042,-0.033 0.035,-0.049 0.035,-0.068L0.035,-0.571C0.035,-0.588 0.041,-0.604 0.054,-0.618C0.067,-0.632 0.083,-0.639 0.102,-0.639L0.388,-0.639C0.407,-0.639 0.423,-0.632 0.436,-0.619C0.448,-0.606 0.455,-0.59 0.455,-0.571C0.455,-0.552 0.448,-0.536 0.436,-0.523C0.423,-0.51 0.407,-0.504 0.388,-0.504L0.168,-0.504L0.168,-0.39L0.321,-0.39C0.339,-0.39 0.355,-0.383 0.368,-0.37C0.381,-0.357 0.388,-0.341 0.388,-0.322C0.388,-0.303 0.381,-0.288 0.368,-0.275C0.355,-0.262 0.339,-0.255 0.321,-0.255L0.168,-0.255L0.168,-0.135L0.388,-0.135Z" style="fill:rgb(64,154,255);fill-rule:nonzero;"/>
        </g>
    </g>
</svg>
